<?xml version="1.0" encoding="utf-8"?>
<!-- Generator: Adobe Illustrator 19.2.0, SVG Export Plug-In . SVG Version: 6.00 Build 0)  -->
<svg version="1.1" id="Capa_1" xmlns="http://www.w3.org/2000/svg" xmlns:xlink="http://www.w3.org/1999/xlink" x="0px" y="0px"
	 viewBox="0 0 493.4 219.3" style="enable-background:new 0 0 493.4 219.3;" xml:space="preserve">
<style type="text/css">
	.st0{fill:#4285F4;}
</style>
<g>
	<path class="st0" d="M490.5,102.2L380.9,2.3c-3-2.5-6.4-2.9-10-1.4c-3.6,1.5-5.4,4.3-5.4,8.3v64H9.1c-2.7,0-4.9,0.9-6.6,2.6
		C0.9,77.4,0,79.6,0,82.2v54.8c0,2.7,0.9,4.9,2.6,6.6c1.7,1.7,3.9,2.6,6.6,2.6h356.3v64c0,3.8,1.8,6.6,5.4,8.3c3.6,1.5,7,1,10-1.7
		l109.6-101.1c1.9-1.9,2.9-4.2,2.9-6.8C493.4,106.3,492.4,104.1,490.5,102.2z"/>
</g>
</svg>
