<?xml version="1.0" encoding="utf-8"?>
<!-- Generator: Adobe Illustrator 19.2.0, SVG Export Plug-In . SVG Version: 6.00 Build 0)  -->
<svg version="1.1" id="Capa_1" xmlns="http://www.w3.org/2000/svg" xmlns:xlink="http://www.w3.org/1999/xlink" x="0px" y="0px"
	 viewBox="0 0 519.6 365.4" style="enable-background:new 0 0 519.6 365.4;" xml:space="preserve">
<g>
	<path d="M512.2,311.5L393.1,13.4c-1.5-3.6-4-6.8-7.4-9.4c-3.4-2.7-7-4-10.9-4h-96.8c2.5,0,4.7,0.9,6.6,2.7c1.9,1.8,2.9,3.9,3.1,6.4
		l4.3,54.8c0.2,2.7-0.6,4.9-2.3,6.6c-1.7,1.7-3.8,2.6-6.3,2.6h-47.4c-2.5,0-4.6-0.9-6.3-2.6c-1.7-1.7-2.5-3.9-2.3-6.6l4.3-54.8
		c0.2-2.5,1.2-4.6,3.1-6.4c1.9-1.8,4.1-2.7,6.6-2.7h-96.8c-3.8,0-7.4,1.3-10.9,4c-3.4,2.7-5.9,5.8-7.4,9.4L7.4,311.5
		C2.5,323.3,0,334.3,0,344.6c0,13.9,4.4,20.8,13.1,20.8h201c-2.5,0-4.6-0.9-6.3-2.7c-1.7-1.8-2.5-3.9-2.3-6.4l5.7-73.1
		c0.2-2.5,1.2-4.6,3.1-6.4c1.9-1.8,4.1-2.7,6.6-2.7h77.7c2.5,0,4.7,0.9,6.6,2.7c1.9,1.8,3,3.9,3.1,6.4l5.7,73.1
		c0.2,2.5-0.6,4.6-2.3,6.4c-1.7,1.8-3.8,2.7-6.3,2.7h201c8.8,0,13.1-6.9,13.1-20.8C519.6,334.3,517.1,323.3,512.2,311.5z
		 M302.9,211.3c0.2,2.3-0.6,4.2-2.3,5.7c-1.7,1.5-3.7,2.3-6,2.3H225c-2.3,0-4.3-0.8-6-2.3c-1.7-1.5-2.5-3.4-2.3-5.7v-1.1l6.9-91.4
		c0.2-2.5,1.2-4.6,3.1-6.4c1.9-1.8,4.1-2.7,6.6-2.7h53.1c2.5,0,4.7,0.9,6.6,2.7c1.9,1.8,3,3.9,3.1,6.4l6.9,91.4L302.9,211.3
		L302.9,211.3z"/>
</g>
</svg>
